<svg width="201" height="136" viewBox="0 0 201 136" fill="none" xmlns="http://www.w3.org/2000/svg">
<path d="M114.1 42.3C113.45 41.825 112.55 40.725 112.125 40.2C115.1 36.025 119.5 28.175 119.5 18.5C119.5 13.625 117.65 11 114.5 11C110.65 11 104.6 16.15 102 25.925C99.4 16.15 93.35 11 89.5 11C86.35 11 84.5 13.625 84.5 18.5C84.5 28.175 88.9 36.025 91.875 40.2C91.45 40.725 90.55 41.825 89.9 42.3C88.65 43.325 85.75 45.725 85.75 49.75C85.75 55.275 90.225 59.75 95.75 59.75C99.625 59.75 102 58.35 102 58.35C102 58.35 104.375 59.75 108.25 59.75C113.775 59.75 118.25 55.275 118.25 49.75C118.25 45.725 115.35 43.325 114.1 42.3ZM95.375 36.5C92.85 32.75 89.5 26.3 89.5 18.5C89.5 17.275 89.65 16.5 89.8 16.075C92.15 16.85 97.9 22.85 98.25 35.175C97.075 35.475 96.15 35.925 95.375 36.5ZM98.25 47.875C97.55 47.875 97 47.025 97 46C97 44.975 97.55 44.125 98.25 44.125C98.95 44.125 99.5 44.975 99.5 46C99.5 47.025 98.95 47.875 98.25 47.875ZM102 54.75C100.625 54.75 99.5 52.95 99.5 52.25C99.5 51.55 100.625 51 102 51C103.375 51 104.5 51.55 104.5 52.25C104.5 52.95 103.375 54.75 102 54.75ZM105.75 47.875C105.05 47.875 104.5 47.025 104.5 46C104.5 44.975 105.05 44.125 105.75 44.125C106.45 44.125 107 44.975 107 46C107 47.025 106.45 47.875 105.75 47.875ZM105.75 35.175C106.1 22.85 111.85 16.85 114.2 16.075C114.35 16.5 114.5 17.275 114.5 18.5C114.5 26.3 111.15 32.75 108.625 36.5C107.85 35.925 106.925 35.475 105.75 35.175Z" fill="#AB0340"></path>
<g clip-path="url('#clip0_145_82')">
<path d="M84 40H144V95H84V40Z" fill="white"></path>
<path d="M99.2917 78.125H105.708V84.5416H99.2917V78.125ZM99.2917 52.4583H105.708V71.7083H99.2917V52.4583ZM102.468 36.4166C84.7579 36.4166 70.4167 50.79 70.4167 68.5C70.4167 86.21 84.7579 100.583 102.468 100.583C120.21 100.583 134.583 86.21 134.583 68.5C134.583 50.79 120.21 36.4166 102.468 36.4166ZM102.5 94.1666C88.3192 94.1666 76.8333 82.6808 76.8333 68.5C76.8333 54.3191 88.3192 42.8333 102.5 42.8333C116.681 42.8333 128.167 54.3191 128.167 68.5C128.167 82.6808 116.681 94.1666 102.5 94.1666Z" fill="#AB0340"></path>
</g>
<path d="M41.6195 101.7C40.0195 101.7 38.7529 101.267 37.8195 100.4C36.8862 99.4667 36.4195 98.2 36.4195 96.6V86.7H9.61953C7.95286 86.7 6.61953 86.3333 5.61953 85.6C4.61953 84.8667 4.11953 83.7333 4.11953 82.2C4.11953 81.3333 4.31953 80.4 4.71953 79.4C5.1862 78.4 5.9862 77.1 7.11953 75.5L36.2195 33.2C36.9529 32.0667 37.7862 31.2333 38.7195 30.7C39.6529 30.1 40.7195 29.8 41.9195 29.8C43.3195 29.8 44.4529 30.2333 45.3195 31.1C46.2529 31.9 46.7195 33.1667 46.7195 34.9V78H53.0195C54.6195 78 55.7862 78.3667 56.5195 79.1C57.3195 79.8333 57.7195 80.9 57.7195 82.3C57.7195 83.7667 57.3195 84.8667 56.5195 85.6C55.7862 86.3333 54.6195 86.7 53.0195 86.7H46.7195V96.6C46.7195 98.2 46.2529 99.4667 45.3195 100.4C44.4529 101.267 43.2195 101.7 41.6195 101.7ZM36.4195 78V42.7H39.1195L13.0195 80.8V78H36.4195Z" fill="#AB0340"></path>
<path d="M182.62 101.7C181.02 101.7 179.753 101.267 178.82 100.4C177.886 99.4667 177.42 98.2 177.42 96.6V86.7H150.62C148.953 86.7 147.62 86.3333 146.62 85.6C145.62 84.8667 145.12 83.7333 145.12 82.2C145.12 81.3333 145.32 80.4 145.72 79.4C146.186 78.4 146.986 77.1 148.12 75.5L177.22 33.2C177.953 32.0667 178.786 31.2333 179.72 30.7C180.653 30.1 181.72 29.8 182.92 29.8C184.32 29.8 185.453 30.2333 186.32 31.1C187.253 31.9 187.72 33.1667 187.72 34.9V78H194.02C195.62 78 196.786 78.3667 197.52 79.1C198.32 79.8333 198.72 80.9 198.72 82.3C198.72 83.7667 198.32 84.8667 197.52 85.6C196.786 86.3333 195.62 86.7 194.02 86.7H187.72V96.6C187.72 98.2 187.253 99.4667 186.32 100.4C185.453 101.267 184.22 101.7 182.62 101.7ZM177.42 78V42.7H180.12L154.02 80.8V78H177.42Z" fill="#AB0340"></path>
<defs>
<clipPath id="clip0_145_82">
<rect width="77" height="77" fill="white" transform="translate(64 30)"></rect>
</clipPath>
</defs>
</svg>
