<svg width="201" height="136" viewBox="0 0 201 136" fill="none" xmlns="http://www.w3.org/2000/svg">
<path d="M110.521 68.5C110.521 72.9275 106.928 76.5208 102.5 76.5208C98.0725 76.5208 94.4792 72.9275 94.4792 68.5C94.4792 64.0725 98.0725 60.4791 102.5 60.4791C106.928 60.4791 110.521 64.0725 110.521 68.5ZM134.583 68.5C134.583 86.21 120.21 100.583 102.5 100.583C84.79 100.583 70.4167 86.21 70.4167 68.5C70.4167 50.79 84.79 36.4166 102.5 36.4166C120.21 36.4166 134.583 50.79 134.583 68.5ZM128.167 68.5H115.333C115.333 61.4095 109.59 55.6666 102.5 55.6666C95.4096 55.6666 89.6667 61.4095 89.6667 68.5H76.8334C76.8334 82.6487 88.3513 94.1666 102.5 94.1666C116.649 94.1666 128.167 82.6487 128.167 68.5Z" fill="#AB0340"></path>
<path d="M31.1195 101.9C27.4529 101.9 23.7529 101.4 20.0195 100.4C16.2862 99.3333 12.8862 97.7 9.81953 95.5C8.81953 94.9 8.15286 94.1333 7.81953 93.2C7.4862 92.2667 7.41953 91.3667 7.61953 90.5C7.81953 89.5667 8.21953 88.8 8.81953 88.2C9.4862 87.6 10.2862 87.2667 11.2195 87.2C12.1529 87.0667 13.1529 87.3333 14.2195 88C16.8195 89.6667 19.4862 90.9333 22.2195 91.8C25.0195 92.6667 27.9195 93.1 30.9195 93.1C33.9862 93.1 36.6195 92.5333 38.8195 91.4C41.0195 90.2667 42.6862 88.7 43.8195 86.7C45.0195 84.6333 45.6195 82.2333 45.6195 79.5C45.6195 75.3 44.3862 71.8667 41.9195 69.2C39.4529 66.5333 36.0195 65.2 31.6195 65.2C29.0862 65.2 26.7195 65.6667 24.5195 66.6C22.3195 67.4667 20.2195 68.9333 18.2195 71C17.7529 71.5333 17.1195 72.0333 16.3195 72.5C15.5862 72.9 14.7529 73.1 13.8195 73.1C12.4195 73.1 11.3529 72.7333 10.6195 72C9.8862 71.2667 9.51953 70.2667 9.51953 69V35.1C9.51953 33.6333 9.91953 32.5 10.7195 31.7C11.5195 30.9 12.6529 30.5 14.1195 30.5H47.6195C49.0862 30.5 50.2195 30.8667 51.0195 31.6C51.8195 32.3333 52.2195 33.4 52.2195 34.8C52.2195 36.2 51.8195 37.3 51.0195 38.1C50.2195 38.8333 49.0862 39.2 47.6195 39.2H19.6195V64.6H16.8195C18.6195 62.0667 20.9862 60.1 23.9195 58.7C26.9195 57.3 30.2195 56.6 33.8195 56.6C38.2862 56.6 42.1529 57.5333 45.4195 59.4C48.6862 61.2667 51.2195 63.9 53.0195 67.3C54.8195 70.6333 55.7195 74.5333 55.7195 79C55.7195 83.5333 54.7195 87.5333 52.7195 91C50.7195 94.4 47.8862 97.0667 44.2195 99C40.5529 100.933 36.1862 101.9 31.1195 101.9Z" fill="#AB0340"></path>
<path d="M171.02 101.9C162.82 101.9 156.553 98.8 152.22 92.6C147.953 86.3333 145.82 77.3667 145.82 65.7C145.82 57.7667 146.786 51.1333 148.72 45.8C150.653 40.4667 153.486 36.4333 157.22 33.7C160.953 30.9667 165.553 29.6 171.02 29.6C179.286 29.6 185.553 32.6667 189.82 38.8C194.086 44.8667 196.22 53.8 196.22 65.6C196.22 73.4 195.253 80 193.32 85.4C191.386 90.8 188.553 94.9 184.82 97.7C181.086 100.5 176.486 101.9 171.02 101.9ZM171.02 93.3C176.153 93.3 179.92 91.0667 182.32 86.6C184.786 82.0667 186.02 75.0667 186.02 65.6C186.02 56.0667 184.786 49.1333 182.32 44.8C179.92 40.4 176.153 38.2 171.02 38.2C165.953 38.2 162.186 40.4 159.72 44.8C157.253 49.1333 156.02 56.0667 156.02 65.6C156.02 75.0667 157.253 82.0667 159.72 86.6C162.186 91.0667 165.953 93.3 171.02 93.3Z" fill="#AB0340"></path>
</svg>
